<?xml version="1.0" encoding="utf-8"?>
<!-- Generator: Adobe Illustrator 27.1.0, SVG Export Plug-In . SVG Version: 6.00 Build 0)  -->
<svg version="1.1" xmlns="http://www.w3.org/2000/svg" xmlns:xlink="http://www.w3.org/1999/xlink" x="0px" y="0px"
	 viewBox="0 0 850.4 850.4" style="enable-background:new 0 0 850.4 850.4;" xml:space="preserve">
<style type="text/css">
	.st0{fill:#AD5417;}
	.st1{fill:#010202;}
	.st2{display:none;}
	.st3{display:inline;fill:#233F1D;}
	.st4{display:inline;fill:#F69F19;}
	.st5{display:inline;fill:#833C12;}
	.st6{display:inline;fill:#36A636;}
	.st7{fill:#2A4294;}
	.st8{fill:#FFFFFF;}
</style>
<g id="Capa_4">
	<rect class="st0" width="850.4" height="850.4"/>
</g>
<g id="Capa_6_copia">
	<rect class="st1" width="850.4" height="850.4"/>
</g>
<g id="Capa_6" class="st2">
	<rect class="st3" width="850.4" height="850.4"/>
</g>
<g id="Capa_2" class="st2">
	<path class="st4" d="M453.9,569.2c-79.5,0-144-64.5-144-144s64.5-144,144-144c46.9,0,88.6,22.4,114.9,57.2
		c-29.4-48.5-82.7-81-143.6-81c-92.7,0-167.8,75.1-167.8,167.8S332.5,593,425.2,593c60.9,0,114.2-32.4,143.6-81
		C542.5,546.8,500.9,569.2,453.9,569.2z"/>
</g>
<g id="Capa_3" class="st2">
	<polygon class="st4" points="425.2,160.5 394.4,245.3 456,245.3 	"/>
	<polygon class="st4" points="238,238 276.2,319.8 319.8,276.2 	"/>
	<polygon class="st4" points="160.5,425.2 245.3,456 245.3,394.4 	"/>
	<polygon class="st4" points="238,612.4 319.8,574.2 276.2,530.6 	"/>
	<polygon class="st4" points="425.2,689.9 456,605.1 394.4,605.1 	"/>
	<polygon class="st5" points="612.4,612.4 574.2,530.6 530.6,574.2 	"/>
	<polygon class="st5" points="689.9,425.2 605.1,394.4 605.1,456 	"/>
	<polygon class="st5" points="612.4,238 530.6,276.2 574.2,319.8 	"/>
</g>
<g id="Capa_5" class="st2">
	<circle class="st6" cx="432.7" cy="425.2" r="179.7"/>
	<polygon class="st3" points="432.7,602.3 586.1,336.6 279.3,336.6 	"/>
	<polygon class="st6" points="491.1,391 432.7,492.2 374.2,391 	"/>
	<rect x="234" y="459.3" class="st3" width="414.7" height="44"/>
</g>
<g id="Capa_8" class="st2">
	<circle class="st7" cx="425.2" cy="425.2" r="199.2"/>
</g>
<g id="Capa_5_copia">
	<circle class="st8" cx="425.2" cy="425.2" r="179.7"/>
	<polygon class="st1" points="355.3,256.5 425.2,333.9 495.1,256.5 489.8,360.6 593.9,355.3 516.5,425.2 593.9,495.1 489.8,489.8 
		495.1,593.9 425.2,516.5 355.3,593.9 360.6,489.8 256.5,495.1 333.9,425.2 256.5,355.3 360.6,360.6 	"/>
</g>
</svg>
