<?xml version="1.0" encoding="utf-8"?>
<!-- Generator: Adobe Illustrator 27.1.0, SVG Export Plug-In . SVG Version: 6.00 Build 0)  -->
<svg version="1.1" xmlns="http://www.w3.org/2000/svg" xmlns:xlink="http://www.w3.org/1999/xlink" x="0px" y="0px"
	 viewBox="0 0 850.4 850.4" style="enable-background:new 0 0 850.4 850.4;" xml:space="preserve">
<style type="text/css">
	.st0{fill:#AD5417;}
	.st1{display:none;}
	.st2{display:inline;fill:#233F1D;}
	.st3{fill:#F69F19;}
	.st4{fill:#833C12;}
	.st5{fill:#36A636;}
	.st6{fill:#233F1D;}
</style>
<g id="Capa_4">
	<rect class="st0" width="850.4" height="850.4"/>
</g>
<g id="Capa_6" class="st1">
	<rect class="st2" width="850.4" height="850.4"/>
</g>
<g id="Capa_2">
	<path class="st3" d="M453.9,569.2c-79.5,0-144-64.5-144-144s64.5-144,144-144c46.9,0,88.6,22.4,114.9,57.2
		c-29.4-48.5-82.7-81-143.6-81c-92.7,0-167.8,75.1-167.8,167.8S332.5,593,425.2,593c60.9,0,114.2-32.4,143.6-81
		C542.5,546.8,500.9,569.2,453.9,569.2z"/>
</g>
<g id="Capa_3">
	<polygon class="st3" points="425.2,160.5 394.4,245.3 456,245.3 	"/>
	<polygon class="st3" points="238,238 276.2,319.8 319.8,276.2 	"/>
	<polygon class="st3" points="160.5,425.2 245.3,456 245.3,394.4 	"/>
	<polygon class="st3" points="238,612.4 319.8,574.2 276.2,530.6 	"/>
	<polygon class="st3" points="425.2,689.9 456,605.1 394.4,605.1 	"/>
	<polygon class="st4" points="612.4,612.4 574.2,530.6 530.6,574.2 	"/>
	<polygon class="st4" points="689.9,425.2 605.1,394.4 605.1,456 	"/>
	<polygon class="st4" points="612.4,238 530.6,276.2 574.2,319.8 	"/>
</g>
<g id="Capa_5" class="st1">
	<circle class="st5" cx="432.7" cy="425.2" r="179.7"/>
	<polygon class="st6" points="432.7,602.3 586.1,336.6 279.3,336.6 	"/>
	<polygon class="st5" points="491.1,391 432.7,492.2 374.2,391 	"/>
	<rect x="234" y="459.3" class="st6" width="414.7" height="44"/>
</g>
</svg>
