<?xml version="1.0" encoding="UTF-8"?><svg xmlns="http://www.w3.org/2000/svg" viewBox="0 0 871.33 850.39"><defs><style>.cls-1,.cls-2{fill:#3aaa35;}.cls-3{stroke-width:30px;}.cls-3,.cls-2,.cls-4{stroke:#233f1d;stroke-miterlimit:10;}.cls-3,.cls-4{fill:none;}.cls-2,.cls-4{stroke-width:45px;}.cls-5{fill:#233f1d;}</style></defs><g id="Capa_6"><rect class="cls-5" width="850.39" height="850.39"/></g><g id="Capa_9"><circle class="cls-2" cx="425.2" cy="425.2" r="211.1"/><path class="cls-1" d="m290.06,420.52l62.44-36.92s-8.57-83.34-4.33-83.34,64.4,34.82,64.4,34.82l78.93-30.86,12.56,83.69,56.85,37.29-64.33,41.59.08,75.27-72.12-33.68s-72.13,41.24-72.12,33.68c0-7.56.08-75.27.08-75.27l-62.44-46.27Z"/><polygon class="cls-4" points="352.41 300.26 424.54 342.01 496.67 300.26 496.58 383.6 568.8 425.2 496.58 466.79 496.67 550.13 424.54 508.39 352.41 550.13 352.5 466.79 280.28 425.2 352.5 383.6 352.41 300.26"/><circle class="cls-5" cx="425.13" cy="425.2" r="26.1"/><line class="cls-3" x1="298.32" y1="425.2" x2="499.75" y2="308.9"/><line class="cls-3" x1="566.06" y1="415.61" x2="364.63" y2="531.91"/></g></svg>